<?xml version="1.0" ?><svg height="100%" id="svg15" style="fill-rule:evenodd;clip-rule:evenodd;stroke-linejoin:round;stroke-miterlimit:2;" version="1.1" viewBox="0 0 64 64" width="100%" xml:space="preserve" xmlns="http://www.w3.org/2000/svg" xmlns:cc="http://creativecommons.org/ns#" xmlns:dc="http://purl.org/dc/elements/1.1/" xmlns:inkscape="http://www.inkscape.org/namespaces/inkscape" xmlns:rdf="http://www.w3.org/1999/02/22-rdf-syntax-ns#" xmlns:sodipodi="http://sodipodi.sourceforge.net/DTD/sodipodi-0.dtd" xmlns:svg="http://www.w3.org/2000/svg"><defs id="defs19"/><path d="m 58.000585,15.000686 c 0,-4.966683 -4.033346,-9.0000287 -9.000029,-9.0000287 H 15.00045 c -4.966683,0 -9.0000286,4.0333457 -9.0000286,9.0000287 0,0 0,34.000106 0,34.000106 0,4.966683 4.0333456,9.000029 9.0000286,9.000029 0,0 34.000106,0 34.000106,0 4.966683,0 9.000029,-4.033346 9.000029,-9.000029 0,0 0,-34.000106 0,-34.000106 z m -2.000007,0 v 34.000106 c 0,3.863346 -3.136676,7.000022 -7.000022,7.000022 H 15.00045 c -3.863346,0 -7.0000224,-3.136676 -7.0000224,-7.000022 V 15.000686 c 0,-3.863346 3.1366764,-7.0000225 7.0000224,-7.0000225 0,0 34.000106,0 34.000106,0 3.863346,0 7.000022,3.1366765 7.000022,7.0000225 z" id="path4" style="stroke-width:1.66667;fill:#000000"/><path d="M 29.000484,57.000277 V 38.000218 h -6.000019 c -0.552001,0 -1.000003,-0.448002 -1.000003,-1.000003 v -7.000022 c 0,-0.552002 0.448002,-1.000003 1.000003,-1.000003 h 6.000019 v -6.000019 c 0,-4.967015 4.033012,-9.000028 9.000028,-9.000028 h 9.000028 c 0.552001,0 1.000003,0.448002 1.000003,1.000004 v 7.000021 c 0,0.552002 -0.448002,1.000003 -1.000003,1.000003 h -5.000016 c -1.656005,0 -3.000009,1.344004 -3.000009,3.00001 l -0.093,3.000009 h 8.093025 c 0.290001,0 0.566001,0.126 0.755002,0.345001 0.190001,0.219001 0.276001,0.509002 0.235001,0.796002 l -1.000003,7.000022 c -0.07,0.493002 -0.492002,0.859003 -0.990003,0.859003 0,0 -7.000022,0 -7.000022,0 V 57.000277 H 37.000509 V 37.000215 c 0,-0.552002 0.448001,-1.000003 1.000003,-1.000003 0,0 7.133022,0 7.133022,0 0,0 0.714002,-5.000016 0.714002,-5.000016 h -7.972025 c -0.271,0 -0.530001,-0.11 -0.718002,-0.304001 -0.188,-0.194 -0.290001,-0.457001 -0.282001,-0.727002 0,0 0.125001,-3.986012 0.125001,-3.982012 0.007,-2.754009 2.245007,-4.987016 5.000015,-4.987016 0,0 4.000013,0 4.000013,0 0,0 0,-5.000015 0,-5.000015 0,0 -8.000025,0 -8.000025,0 -3.863012,0 -7.000022,3.137009 -7.000022,7.000021 v 7.000022 c 0,0.552002 -0.448001,1.000003 -1.000003,1.000003 0,0 -6.000019,0 -6.000019,0 0,0 0,5.000016 0,5.000016 h 6.000019 c 0.552002,0 1.000003,0.448001 1.000003,1.000003 v 20.000062 z" id="path8" style="stroke-width:1;fill:#000000"/></svg>