<svg width="602" height="596" viewBox="0 0 602 596" fill="none" xmlns="http://www.w3.org/2000/svg">
<path fill-rule="evenodd" clip-rule="evenodd" d="M181.92 122.566C221.596 95.1959 268.496 80.7747 316.326 86.7431C362.547 92.5108 398.054 122.832 432.786 153.87C476.644 193.062 534.943 227.357 539.319 286.012C544.068 349.66 511.365 420.02 454.856 449.692C402.296 477.291 345.202 426.534 286.334 418.852C232.183 411.785 170.366 443.04 129.17 407.191C85.3782 369.084 76.1305 302.217 86.709 245.139C96.5097 192.256 137.649 153.105 181.92 122.566Z" fill="#B1E392" fill-opacity="0.8" stroke="#B1E392"/>
<path fill-rule="evenodd" clip-rule="evenodd" d="M167.53 121.721C205.866 95.2763 251.181 81.3425 297.395 87.1091C342.054 92.6819 376.361 121.979 409.919 151.967C452.295 189.835 508.624 222.972 512.852 279.645C517.44 341.142 485.843 409.124 431.244 437.793C380.459 464.46 325.295 415.418 268.417 407.995C216.095 401.167 156.367 431.366 116.563 396.728C74.251 359.909 65.3158 295.302 75.5368 240.152C85.0064 189.057 124.755 151.228 167.53 121.721Z" stroke="white" stroke-width="3" stroke-dasharray="5 5"/>
</svg>
