<svg width="126" height="109" viewBox="0 0 126 109" fill="none" xmlns="http://www.w3.org/2000/svg">
<path d="M55.7857 27.7935L67.8506 42.7935H43.7208L55.7857 27.7935Z" fill="#B1E392"/>
<path d="M55.7857 40.2221L70.4958 56.3792H41.0757L55.7857 40.2221Z" fill="#B1E392"/>
<path d="M55.7857 49.3364L73.366 68.6007H38.2054L55.7857 49.3364Z" fill="#B1E392"/>
<path d="M54.2393 24.9504L39.559 41.87" stroke="black"/>
<path d="M71.379 24.8754L56.7125 42.3068" stroke="black"/>
<line x1="44.9717" y1="44.6994" x2="35.8574" y2="54.8298" stroke="black"/>
<line x1="36.3143" y1="54.6364" x2="47.0857" y2="54.6364" stroke="black"/>
<line x1="44.022" y1="56.9887" x2="33.3555" y2="67.7757" stroke="black"/>
<line x1="63.8269" y1="55.4912" x2="51.5847" y2="67.9159" stroke="black"/>
<path d="M53.655 24.8754L68.088 42.298" stroke="black"/>
<path d="M70.7688 24.8754L85.5043 42.4484" stroke="black"/>
<path d="M39.9661 41.6956L46.2572 41.6956" stroke="black"/>
<path d="M85.1933 42.3531L75.598 42.2085" stroke="black"/>
<path d="M75.8949 42.2895L88.2119 54.7097" stroke="black"/>
<line x1="36.3143" y1="54.6364" x2="47.0857" y2="54.6364" stroke="black"/>
<path d="M87.9212 54.6364H77.7428" stroke="black"/>
<path d="M61.2898 55.5588L73.7527 68.2395" stroke="black"/>
<path d="M78.0843 54.7422L90.6559 67.7385" stroke="black"/>
<line x1="33" y1="67.8936" x2="73.6" y2="67.8936" stroke="black"/>
<line x1="50.4" y1="67.8936" x2="91" y2="67.8936" stroke="black"/>
<rect x="51.2286" y="68.3936" width="7.45714" height="12.4286" fill="#BC8660"/>
<rect x="66.9714" y="68.3936" width="7.45714" height="12.4286" fill="#D9D9D9"/>
<rect x="59.8428" y="71.2078" width="5.97143" height="7.62857" stroke="black"/>
<line x1="57.0286" y1="42.2078" x2="67.8" y2="42.2078" stroke="black"/>
<line x1="65.0489" y1="47.2043" x2="56.5535" y2="55.6996" stroke="black"/>
<path d="M60.9668 47.265L68.9422 55.4634" stroke="black"/>
<line x1="56.2" y1="55.465" x2="68.6286" y2="55.465" stroke="black"/>
<path d="M41.26 95.6392C41.26 95.8926 41.1867 96.1059 41.04 96.2792C40.8933 96.4392 40.6867 96.5192 40.42 96.5192H38.72V104.119H36.92L36.96 98.8992C36.8267 99.1926 36.5933 99.5126 36.26 99.8592C35.9267 100.193 35.6333 100.473 35.38 100.699C34.6867 101.286 33.9333 101.759 33.12 102.119C33.0667 102.146 33.0067 102.173 32.94 102.199C32.8733 102.226 32.8067 102.239 32.74 102.239C32.6867 102.239 32.66 102.206 32.66 102.139C32.66 102.059 32.74 101.946 32.9 101.799C33.0733 101.653 33.1867 101.553 33.24 101.499C33.9333 100.806 34.5533 100.033 35.1 99.1792C35.66 98.3126 36.1133 97.4259 36.46 96.5192H33.54V95.6992H37V93.8392H38.76V95.6992H39.66C39.66 95.4726 39.7267 95.2792 39.86 95.1192C40.0067 94.9592 40.2 94.8792 40.44 94.8792C40.6667 94.8792 40.86 94.9459 41.02 95.0792C41.18 95.2126 41.26 95.3992 41.26 95.6392ZM41.48 99.7792C41.48 99.9392 41.3933 100.019 41.22 100.019C41.1667 100.019 41.02 99.9326 40.78 99.7592C40.54 99.5859 40.28 99.3859 40 99.1592C39.72 98.9192 39.4733 98.7059 39.26 98.5192C39.06 98.3192 38.96 98.1992 38.96 98.1592C38.96 98.1326 39.02 98.0792 39.14 97.9992C39.2733 97.9059 39.4267 97.8126 39.6 97.7192C39.7867 97.6126 39.9533 97.5192 40.1 97.4392C40.26 97.3592 40.3667 97.3059 40.42 97.2792C40.46 97.3592 40.5333 97.5259 40.64 97.7792C40.7467 98.0326 40.8667 98.3059 41 98.5992C41.1333 98.8926 41.2467 99.1526 41.34 99.3792C41.4333 99.6059 41.48 99.7392 41.48 99.7792ZM51.82 101.979C51.82 102.206 51.72 102.393 51.52 102.539C51.3333 102.699 51.1267 102.779 50.9 102.779C50.46 102.779 50 102.613 49.52 102.279C49.0533 101.946 48.6 101.533 48.16 101.039C47.72 100.533 47.32 100.026 46.96 99.5192C46.6133 98.9992 46.34 98.5659 46.14 98.2192V104.119H44.3V98.9792C43.7667 99.7926 43.0867 100.553 42.26 101.259C41.4467 101.953 40.5867 102.493 39.68 102.879C39.6267 102.893 39.5733 102.906 39.52 102.919C39.4667 102.946 39.4067 102.959 39.34 102.959C39.3133 102.959 39.28 102.946 39.24 102.919C39.2 102.906 39.18 102.886 39.18 102.859C39.18 102.793 39.2133 102.726 39.28 102.659C39.4133 102.539 39.5467 102.426 39.68 102.319C39.8267 102.199 39.9667 102.073 40.1 101.939C40.5933 101.486 41.08 100.959 41.56 100.359C42.04 99.7459 42.4733 99.1126 42.86 98.4592C43.26 97.7926 43.5667 97.1392 43.78 96.4992H41.76V95.6592H44.3V93.8392H46.14V95.6592H48.98C48.98 95.3926 49.0667 95.1459 49.24 94.9192C49.4133 94.6926 49.6467 94.5792 49.94 94.5792C50.2067 94.5792 50.4333 94.6792 50.62 94.8792C50.82 95.0792 50.92 95.3126 50.92 95.5792C50.92 95.8326 50.8467 96.0526 50.7 96.2392C50.5533 96.4126 50.3467 96.4992 50.08 96.4992H46.14V97.8792L47.82 97.1392C48.06 97.9259 48.3867 98.7259 48.8 99.5392C49.2267 100.353 49.6867 101.093 50.18 101.759C50.2467 101.573 50.3533 101.426 50.5 101.319C50.6467 101.199 50.8133 101.139 51 101.139C51.24 101.139 51.4333 101.219 51.58 101.379C51.74 101.539 51.82 101.739 51.82 101.979ZM49.04 88.0592C49.04 88.3659 48.9133 88.6059 48.66 88.7792C48.42 88.9392 48.16 89.0192 47.88 89.0192H42.64V93.6192H40.74V90.1992C39.9533 90.9726 39.0933 91.6659 38.16 92.2792C37.2267 92.8926 36.2267 93.3592 35.16 93.6792C35.0667 93.7059 34.92 93.7459 34.72 93.7992C34.5333 93.8526 34.4 93.8792 34.32 93.8792C34.2933 93.8792 34.2533 93.8792 34.2 93.8792C34.16 93.8659 34.14 93.8326 34.14 93.7792C34.14 93.7126 34.2 93.6326 34.32 93.5392C34.4533 93.4459 34.5933 93.3592 34.74 93.2792C34.9 93.1859 35.0067 93.1192 35.06 93.0792C35.8333 92.5726 36.5933 91.9592 37.34 91.2392C38.0867 90.5192 38.7267 89.7792 39.26 89.0192H34.76V88.1792H40.74V86.0592H42.64V88.1792H46.94C46.94 88.1526 46.9333 88.1326 46.92 88.1192C46.92 88.0926 46.92 88.0726 46.92 88.0592C46.92 87.7659 47.0267 87.5192 47.24 87.3192C47.4533 87.1059 47.7067 86.9992 48 86.9992C48.28 86.9992 48.52 87.1126 48.72 87.3392C48.9333 87.5526 49.04 87.7926 49.04 88.0592ZM49.74 92.4792C49.74 92.6792 49.66 92.8792 49.5 93.0792C49.34 93.2659 49.1533 93.3592 48.94 93.3592C48.22 93.3592 47.4867 93.2192 46.74 92.9392C45.9933 92.6592 45.2867 92.2926 44.62 91.8392C43.9667 91.3726 43.4 90.8792 42.92 90.3592L44.52 89.3592C45.0133 90.0126 45.54 90.6126 46.1 91.1592C46.6733 91.7059 47.3067 92.1926 48 92.6192C47.9867 92.5926 47.98 92.5592 47.98 92.5192C47.98 92.2926 48.0733 92.0859 48.26 91.8992C48.4467 91.7126 48.6533 91.6192 48.88 91.6192C49.1067 91.6192 49.3067 91.7059 49.48 91.8792C49.6533 92.0526 49.74 92.2526 49.74 92.4792ZM61.12 96.2592C61.12 96.3926 61.06 96.4592 60.94 96.4592C60.82 96.4592 60.6267 96.3459 60.36 96.1192C60.1067 95.8926 59.8333 95.6259 59.54 95.3192C59.26 94.9992 59 94.6992 58.76 94.4192C58.5333 94.1392 58.38 93.9392 58.3 93.8192L58.24 93.8592V103.739H56.48V94.6592C56.1467 95.3392 55.74 95.9726 55.26 96.5592C54.78 97.1326 54.2467 97.6659 53.66 98.1592C53.5 98.2926 53.3333 98.4326 53.16 98.5792C52.9867 98.7126 52.8067 98.8326 52.62 98.9392C52.5667 98.9659 52.5 98.9992 52.42 99.0392C52.34 99.0792 52.2667 99.0992 52.2 99.0992C52.12 99.0992 52.08 99.0592 52.08 98.9792C52.08 98.9259 52.1 98.8792 52.14 98.8392C52.18 98.7992 52.2133 98.7659 52.24 98.7392C52.64 98.3259 53.0333 97.8192 53.42 97.2192C53.8067 96.6059 54.1667 95.9526 54.5 95.2592C54.8467 94.5659 55.1467 93.8792 55.4 93.1992C55.6533 92.5192 55.8467 91.9126 55.98 91.3792H53.18V90.6392H56.48V86.4392H58.24V90.6392H58.94C58.94 90.4126 59.0133 90.2126 59.16 90.0392C59.3067 89.8526 59.4933 89.7592 59.72 89.7592C59.9467 89.7592 60.14 89.8392 60.3 89.9992C60.46 90.1459 60.54 90.3326 60.54 90.5592C60.54 90.8392 60.4467 91.0459 60.26 91.1792C60.0867 91.3126 59.8667 91.3792 59.6 91.3792H58.24V93.7592L58.3 93.8192C58.5667 93.6726 58.8333 93.5326 59.1 93.3992C59.3667 93.2659 59.6267 93.1192 59.88 92.9592C60.04 93.4526 60.2067 93.9459 60.38 94.4392C60.5533 94.9326 60.7467 95.4126 60.96 95.8792C60.9867 95.9192 61.02 95.9859 61.06 96.0792C61.1 96.1726 61.12 96.2326 61.12 96.2592ZM70.84 90.3592C70.84 90.5992 70.7533 90.8259 70.58 91.0392C70.4067 91.2526 70.1933 91.3592 69.94 91.3592H66.1V103.819H64.28V94.7592C63.9333 95.4659 63.5533 96.1192 63.14 96.7192C62.8333 97.1726 62.44 97.6659 61.96 98.1992C61.48 98.7326 60.9667 99.2326 60.42 99.6992C59.8867 100.153 59.3733 100.506 58.88 100.759C58.8533 100.773 58.82 100.786 58.78 100.799C58.7533 100.813 58.7267 100.819 58.7 100.819C58.6333 100.819 58.6 100.793 58.6 100.739C58.6 100.686 58.6533 100.593 58.76 100.459C58.8667 100.326 58.98 100.199 59.1 100.079C59.2333 99.9459 59.32 99.8526 59.36 99.7992C59.96 99.0659 60.54 98.2192 61.1 97.2592C61.66 96.2992 62.16 95.3059 62.6 94.2792C63.04 93.2526 63.3733 92.2792 63.6 91.3592H61.16V90.5392H64.28V86.2192H66.1V90.5392H68.84C68.8267 90.4992 68.82 90.4392 68.82 90.3592C68.82 90.0792 68.92 89.8392 69.12 89.6392C69.32 89.4392 69.56 89.3392 69.84 89.3392C70.12 89.3392 70.3533 89.4392 70.54 89.6392C70.74 89.8392 70.84 90.0792 70.84 90.3592ZM71.84 100.139C71.84 100.353 71.7467 100.539 71.56 100.699C71.3867 100.859 71.1933 100.939 70.98 100.939C70.6867 100.939 70.38 100.813 70.06 100.559C69.74 100.293 69.4867 100.053 69.3 99.8392C68.8067 99.2659 68.36 98.5992 67.96 97.8392C67.5733 97.0792 67.2333 96.2926 66.94 95.4792C66.66 94.6659 66.42 93.8992 66.22 93.1792L68.14 92.4592C68.2067 92.9926 68.3 93.5992 68.42 94.2792C68.5533 94.9459 68.7133 95.6259 68.9 96.3192C69.1 96.9992 69.32 97.6526 69.56 98.2792C69.8133 98.8926 70.0933 99.4192 70.4 99.8592C70.4667 99.7126 70.56 99.5859 70.68 99.4792C70.8 99.3592 70.94 99.2992 71.1 99.2992C71.3267 99.2992 71.5067 99.3859 71.64 99.5592C71.7733 99.7326 71.84 99.9259 71.84 100.139ZM87.6 94.4592C87.6 95.6459 87.5933 96.8392 87.58 98.0392C87.58 99.2259 87.58 100.413 87.58 101.599C87.58 102.226 87.4267 102.759 87.12 103.199C86.8267 103.639 86.3333 103.859 85.64 103.859C85.2267 103.859 84.8267 103.779 84.44 103.619C84.0533 103.459 83.6867 103.279 83.34 103.079C83.2733 103.039 83.1533 102.966 82.98 102.859C82.8067 102.753 82.62 102.633 82.42 102.499C82.22 102.379 82.0467 102.259 81.9 102.139C81.7533 102.019 81.68 101.926 81.68 101.859C81.68 101.819 81.7 101.793 81.74 101.779C81.78 101.753 81.8133 101.739 81.84 101.739C81.9333 101.739 82.02 101.759 82.1 101.799C82.5267 101.946 82.96 102.086 83.4 102.219C83.8533 102.339 84.3067 102.399 84.76 102.399C85.0267 102.399 85.2533 102.346 85.44 102.239C85.6267 102.119 85.72 101.906 85.72 101.599C85.72 100.533 85.7133 99.4726 85.7 98.4192C85.7 97.3659 85.7 96.3126 85.7 95.2592H78L78.02 96.6392L83.2 96.6192C83.2 96.4059 83.28 96.2326 83.44 96.0992C83.6 95.9526 83.78 95.8792 83.98 95.8792C84.1933 95.8792 84.3733 95.9592 84.52 96.1192C84.6667 96.2792 84.74 96.4592 84.74 96.6592C84.74 96.8859 84.6533 97.0659 84.48 97.1992C84.32 97.3192 84.1333 97.3792 83.92 97.3792L78.02 97.3992V98.8792L83.18 98.8592C83.18 98.6326 83.26 98.4459 83.42 98.2992C83.58 98.1392 83.7667 98.0592 83.98 98.0592C84.1933 98.0592 84.3733 98.1459 84.52 98.3192C84.6667 98.4792 84.74 98.6592 84.74 98.8592C84.74 99.0726 84.6667 99.2526 84.52 99.3992C84.3733 99.5326 84.1933 99.5992 83.98 99.5992H78.02L78.04 103.599L76.28 103.619V94.4792C78.1733 94.4792 80.06 94.4792 81.94 94.4792C83.82 94.4659 85.7067 94.4592 87.6 94.4592ZM90.48 88.0392C90.48 88.3726 90.3733 88.6726 90.16 88.9392C89.9467 89.1926 89.66 89.3192 89.3 89.3192H81.32C81.4133 89.3459 81.54 89.3926 81.7 89.4592C81.8733 89.5126 81.96 89.5992 81.96 89.7192C81.96 89.7859 81.9333 89.8326 81.88 89.8592C81.84 89.8726 81.7933 89.8926 81.74 89.9192C81.66 89.9592 81.58 90.0059 81.5 90.0592C81.4333 90.0992 81.3667 90.1392 81.3 90.1792C81.1533 90.2726 81 90.3592 80.84 90.4392C80.68 90.5059 80.52 90.5792 80.36 90.6592C79.8133 90.9259 79.26 91.1926 78.7 91.4592C78.14 91.7259 77.5867 91.9926 77.04 92.2592C77.9067 92.2592 78.7667 92.2592 79.62 92.2592C80.4867 92.2592 81.3467 92.2326 82.2 92.1792C82.5467 92.1526 82.9067 92.1259 83.28 92.0992C83.6533 92.0592 84.0067 91.9926 84.34 91.8992C84.42 91.8726 84.5067 91.8392 84.6 91.7992C84.7067 91.7592 84.8 91.7392 84.88 91.7392C85 91.7392 85.06 91.7992 85.06 91.9192C85.06 91.9726 85.0133 92.0459 84.92 92.1392C84.8267 92.2192 84.76 92.2726 84.72 92.2992C84.3333 92.6059 83.9333 92.8326 83.52 92.9792C83.1067 93.1126 82.6533 93.2126 82.16 93.2792C80.9733 93.4259 79.7733 93.5326 78.56 93.5992C77.36 93.6526 76.16 93.7059 74.96 93.7592C74.88 93.5192 74.8 93.2792 74.72 93.0392C74.64 92.7859 74.5733 92.5326 74.52 92.2792C74.7867 92.2392 75.04 92.1926 75.28 92.1392C75.52 92.0726 75.7533 91.9726 75.98 91.8392C76.5667 91.4926 77.1267 91.0992 77.66 90.6592C78.2067 90.2059 78.74 89.7592 79.26 89.3192H73.5V88.4792H81.2C81.08 88.0126 80.96 87.5526 80.84 87.0992C80.7333 86.6326 80.6333 86.1726 80.54 85.7192H81.38C81.6467 85.7192 81.92 85.7259 82.2 85.7392C82.4933 85.7392 82.7733 85.7659 83.04 85.8192C83.16 85.8326 83.26 85.8659 83.34 85.9192C83.42 85.9592 83.46 86.0526 83.46 86.1992C83.46 86.2926 83.42 86.4459 83.34 86.6592C83.26 86.8592 83.16 87.0792 83.04 87.3192C82.92 87.5592 82.8 87.7859 82.68 87.9992C82.5733 88.2126 82.4933 88.3726 82.44 88.4792H87.9C87.8467 88.3592 87.82 88.2126 87.82 88.0392C87.82 87.6792 87.9533 87.3859 88.22 87.1592C88.5 86.9192 88.8133 86.7992 89.16 86.7992C89.5067 86.7992 89.8133 86.9192 90.08 87.1592C90.3467 87.3992 90.48 87.6926 90.48 88.0392ZM89.96 92.9592C89.96 93.2259 89.8533 93.4326 89.64 93.5792C89.44 93.7259 89.2133 93.7992 88.96 93.7992C88.7067 93.7992 88.4467 93.7659 88.18 93.6992C87.9267 93.6326 87.68 93.5459 87.44 93.4392C87.0933 93.2659 86.6867 93.0192 86.22 92.6992C85.7667 92.3659 85.3267 92.0059 84.9 91.6192C84.4867 91.2326 84.16 90.8859 83.92 90.5792L85.76 89.5992C86.12 90.1992 86.5133 90.7792 86.94 91.3392C87.3667 91.8992 87.8267 92.4192 88.32 92.8992C88.3067 92.6992 88.3933 92.5259 88.58 92.3792C88.78 92.2192 88.9733 92.1392 89.16 92.1392C89.36 92.1392 89.54 92.2259 89.7 92.3992C89.8733 92.5726 89.96 92.7592 89.96 92.9592Z" fill="#444040"/>
<path d="M24.1471 25.3345L27.1149 22.0321L27.6861 22.5454L24.7183 25.8478L24.1471 25.3345ZM27.4333 28.1587L26.8398 28.8191L20.592 23.2044L24.4421 18.9202L25.0134 19.4336L21.7568 23.0573L27.4333 28.1587Z" fill="black"/>
<path d="M33.3477 22.6606C32.8823 23.0518 32.3752 23.3003 31.8267 23.406C31.2791 23.5005 30.7437 23.4541 30.2205 23.2668C29.6922 23.0734 29.2273 22.7378 28.8258 22.2601C28.4191 21.7763 28.1686 21.2606 28.0741 20.713C27.9796 20.1654 28.0286 19.633 28.2211 19.116C28.4135 18.5989 28.7455 18.1422 29.2171 17.7459C29.6948 17.3444 30.2049 17.0934 30.7473 16.9928C31.2959 16.887 31.8287 16.9304 32.3458 17.1228C32.869 17.3101 33.3339 17.6457 33.7405 18.1295C34.142 18.6072 34.3925 19.1229 34.4922 19.6767C34.5928 20.2191 34.5464 20.7545 34.3529 21.2828C34.1543 21.805 33.8193 22.2643 33.3477 22.6606ZM32.8613 22.0819C33.2104 21.7885 33.4553 21.452 33.5961 21.0724C33.7317 20.6867 33.7577 20.2887 33.6741 19.8783C33.5914 19.4566 33.3931 19.059 33.0791 18.6854C32.76 18.3057 32.4024 18.0419 32.0064 17.894C31.6165 17.741 31.2225 17.7011 30.8244 17.7745C30.4211 17.8418 30.0479 18.0195 29.705 18.3077C29.362 18.596 29.1227 18.933 28.9871 19.3187C28.8463 19.6982 28.8147 20.0958 28.8922 20.5113C28.9697 20.9269 29.1681 21.3245 29.4872 21.7042C29.8012 22.0778 30.1587 22.3416 30.5599 22.4956C30.9559 22.6435 31.3555 22.6838 31.7588 22.6166C32.157 22.5432 32.5245 22.365 32.8613 22.0819Z" fill="black"/>
<path d="M36.6622 20.2279L33.2346 14.9419L33.9193 14.498L34.8529 15.9378L34.6192 15.7318C34.5057 15.2333 34.556 14.7668 34.7701 14.3324C34.9799 13.8913 35.3432 13.5032 35.8601 13.168L36.3105 13.8627C36.2837 13.8802 36.2568 13.8976 36.23 13.915C36.1988 13.9257 36.1698 13.9397 36.1429 13.9571C35.5858 14.3184 35.2605 14.7725 35.167 15.3194C35.0691 15.8596 35.2226 16.4418 35.6274 17.066L37.3771 19.7644L36.6622 20.2279Z" fill="black"/>
<path d="M43.3828 16.602C42.7926 16.8883 42.215 17.0173 41.65 16.9891C41.0815 16.9536 40.5666 16.781 40.1052 16.4714C39.6403 16.1545 39.2717 15.7153 38.9993 15.1539C38.727 14.5924 38.6049 14.0382 38.6329 13.4911C38.6682 12.9405 38.8352 12.4416 39.134 11.9944C39.4365 11.5364 39.8504 11.1801 40.3759 10.9252C40.9085 10.6668 41.4393 10.5605 41.9683 10.6062C42.501 10.6413 42.9926 10.8207 43.4431 11.1446C43.8901 11.4612 44.2516 11.9039 44.5274 12.4725C44.5448 12.5085 44.5604 12.5499 44.5742 12.5965C44.5916 12.6325 44.6108 12.6721 44.6318 12.7153L39.6976 15.1086L39.42 14.5364L43.9439 12.3421L43.7516 12.7154C43.5526 12.3052 43.2863 11.9853 42.9527 11.7559C42.6229 11.5158 42.2632 11.379 41.8736 11.3457C41.484 11.3124 41.0912 11.3918 40.6953 11.5838C40.3066 11.7723 40.0012 12.0316 39.7789 12.3617C39.5567 12.6918 39.4378 13.0607 39.4221 13.4684C39.4065 13.8761 39.4999 14.2887 39.7024 14.7061L39.76 14.8249C39.9695 15.2568 40.2481 15.5929 40.5959 15.8332C40.9473 16.0629 41.3376 16.1892 41.7667 16.2123C42.1995 16.2246 42.6354 16.1243 43.0745 15.9114C43.42 15.7438 43.7106 15.5272 43.9464 15.2617C44.1893 14.9927 44.3577 14.6799 44.4514 14.3232L45.1242 14.6104C45.0189 15.0349 44.8139 15.4189 44.5092 15.7623C44.2118 16.1022 43.8363 16.3821 43.3828 16.602Z" fill="black"/>
<path d="M48.6873 14.6307C48.1941 14.7955 47.7047 14.8832 47.219 14.8937C46.7307 14.8967 46.3259 14.8338 46.0045 14.705L46.1556 13.9459C46.4593 14.0469 46.8236 14.1022 47.2487 14.112C47.6711 14.1142 48.091 14.0455 48.5083 13.906C49.0774 13.7158 49.4579 13.4916 49.65 13.2334C49.8395 12.9676 49.8848 12.6868 49.7859 12.3909C49.7124 12.1709 49.5832 12.0242 49.3985 11.951C49.2188 11.8677 49.005 11.8337 48.7571 11.8491C48.5066 11.8569 48.2334 11.8849 47.9375 11.9333C47.6415 11.9816 47.3431 12.0223 47.042 12.0554C46.7486 12.086 46.4691 12.0825 46.2034 12.0447C45.9352 11.9994 45.6948 11.8984 45.4821 11.7418C45.2771 11.5826 45.1175 11.3322 45.0034 10.9908C44.8943 10.6645 44.8877 10.342 44.9836 10.0232C45.0795 9.70433 45.2778 9.4145 45.5787 9.15367C45.8845 8.88273 46.2917 8.6623 46.8 8.49238C47.187 8.36303 47.5917 8.2868 48.0141 8.26368C48.4341 8.23298 48.7971 8.25924 49.1033 8.34247L48.9673 9.10912C48.6409 9.01579 48.3133 8.98191 47.9844 9.00748C47.653 9.02546 47.3356 9.08518 47.0321 9.18662C46.4934 9.36669 46.1267 9.59467 45.9322 9.87059C45.7426 10.1364 45.6961 10.4134 45.7924 10.7017C45.8685 10.9294 45.9964 11.0848 46.1761 11.1682C46.3634 11.249 46.5835 11.2893 46.8365 11.2891C47.0945 11.2787 47.3677 11.2507 47.6561 11.2049C47.952 11.1566 48.248 11.1209 48.544 11.0979C48.845 11.0648 49.1283 11.0671 49.394 11.1048C49.6647 11.1324 49.9026 11.2258 50.1076 11.385C50.3177 11.5341 50.4773 11.7718 50.5864 12.098C50.703 12.447 50.7058 12.7835 50.5948 13.1074C50.4888 13.4212 50.274 13.7123 49.9504 13.9807C49.6319 14.239 49.2108 14.4557 48.6873 14.6307Z" fill="black"/>
<path d="M54.4182 13.2391C53.8392 13.3623 53.3599 13.3008 52.9803 13.0544C52.6007 12.808 52.3501 12.3992 52.2285 11.828L50.9972 6.04156L51.8305 5.86422L53.0519 11.6037C53.1285 11.9636 53.2776 12.2223 53.4992 12.3796C53.7286 12.5352 54.0155 12.5764 54.3597 12.5032C54.7275 12.4249 55.0102 12.2543 55.2078 11.9915L55.6286 12.5276C55.4959 12.7112 55.3197 12.8633 55.1 12.9836C54.888 13.1023 54.6608 13.1875 54.4182 13.2391ZM50.331 8.33035L50.1836 7.63786L53.9982 6.8261L54.1455 7.51859L50.331 8.33035Z" fill="black"/>
<path d="M62.9245 7.86922L67.3639 7.94083L67.3517 8.69673L62.9123 8.62512L62.9245 7.86922ZM62.9579 11.7463L68.0093 11.8277L67.9969 12.5956L62.0577 12.4998L62.1932 4.10093L67.9524 4.19383L67.94 4.96173L63.0687 4.88316L62.9579 11.7463Z" fill="black"/>
<path d="M71.4171 13.4119C70.8254 13.3124 70.3155 13.0887 69.8872 12.7408C69.4669 12.3943 69.1624 11.9618 68.9738 11.4433C68.7866 10.917 68.7453 10.3422 68.8502 9.71891C68.9564 9.08778 69.1834 8.5581 69.5312 8.12987C69.8791 7.70165 70.3077 7.39652 70.8169 7.21448C71.3354 7.02588 71.8905 6.98135 72.4822 7.08088C73.0265 7.17246 73.4911 7.37636 73.876 7.69259C74.2688 8.01015 74.5515 8.42684 74.7244 8.94266C74.9064 9.45191 74.9404 10.0458 74.8262 10.7242C74.7134 11.3948 74.491 11.9455 74.1589 12.3764C73.8268 12.8073 73.4226 13.1125 72.9462 13.2919C72.479 13.4648 71.9693 13.5048 71.4171 13.4119ZM71.6017 12.6764C72.0435 12.7507 72.4545 12.7184 72.8348 12.5796C73.2243 12.4342 73.5482 12.1966 73.8065 11.8669C74.074 11.5306 74.2482 11.1219 74.3292 10.6406C74.4115 10.1515 74.3806 9.70823 74.2365 9.31083C74.1003 8.91475 73.8713 8.58823 73.5495 8.33128C73.2369 8.06777 72.8597 7.89885 72.4179 7.82453C71.984 7.75153 71.5762 7.7884 71.1946 7.93512C70.8143 8.07395 70.4911 8.30757 70.2249 8.63596C69.9587 8.96436 69.7845 9.37312 69.7022 9.86224C69.6213 10.3435 69.6522 10.7867 69.7949 11.192C69.939 11.5895 70.1673 11.9199 70.4799 12.1834C70.7939 12.439 71.1678 12.6034 71.6017 12.6764ZM73.8293 13.7569L74.1438 11.8872L74.4377 10.6467L74.5304 9.37243L75.2709 4.97029L76.1111 5.11163L74.634 13.8922L73.8293 13.7569Z" fill="black"/>
<path d="M78.3393 15.3019C77.8301 15.1347 77.4166 14.8937 77.099 14.5789C76.7813 14.2642 76.5784 13.8818 76.4904 13.4319C76.4099 12.9845 76.4633 12.4757 76.6504 11.9057L77.792 8.42827L78.6015 8.69402L77.4898 12.0802C77.2802 12.7187 77.2776 13.2525 77.4819 13.6816C77.6964 14.1057 78.0886 14.4113 78.6587 14.5984C79.0767 14.7357 79.4652 14.7706 79.8242 14.7032C80.1932 14.6307 80.5112 14.4572 80.7781 14.1827C81.0526 13.9108 81.2647 13.5468 81.4144 13.0908L82.4437 9.95539L83.2532 10.2211L81.2882 16.2068L80.5129 15.9523L81.0519 14.3105L81.08 14.6481C80.7452 15.0266 80.3353 15.2751 79.8501 15.3937C79.375 15.5072 78.8714 15.4766 78.3393 15.3019Z" fill="black"/>
<path d="M84.885 18.1986C84.325 17.9232 83.8825 17.5541 83.5574 17.0911C83.243 16.6245 83.0661 16.1141 83.0266 15.5598C82.9907 14.9983 83.1104 14.4376 83.3857 13.8776C83.6646 13.3105 84.0355 12.8733 84.4986 12.5661C84.9617 12.2589 85.4722 12.091 86.0301 12.0622C86.5953 12.037 87.1578 12.162 87.7178 12.4374C88.1988 12.6739 88.5872 12.9808 88.8831 13.358C89.179 13.7353 89.3464 14.1653 89.3854 14.6481L88.6241 14.7551C88.5714 14.3726 88.4351 14.0426 88.215 13.765C87.9949 13.4874 87.7161 13.2656 87.3787 13.0997C86.9767 12.902 86.5682 12.8171 86.1534 12.8449C85.7421 12.8655 85.3619 12.9951 85.0129 13.2335C84.6639 13.472 84.3799 13.8138 84.1611 14.2589C83.9422 14.704 83.8449 15.1375 83.8692 15.5596C83.8935 15.9816 84.0212 16.3653 84.2525 16.7108C84.4873 17.0492 84.8057 17.3172 85.2078 17.5149C85.5452 17.6808 85.891 17.7661 86.2452 17.7709C86.5995 17.7757 86.9423 17.6858 87.2738 17.5011L87.654 18.1694C87.2514 18.4261 86.8086 18.5561 86.3256 18.5593C85.8462 18.5553 85.366 18.4351 84.885 18.1986Z" fill="black"/>
<path d="M91.1377 22.1055L91.9137 20.9499L92.011 20.7406L93.3089 18.808C93.6077 18.363 93.7112 17.9362 93.6194 17.5277C93.5343 17.1236 93.2459 16.7565 92.7545 16.4264C92.4158 16.199 92.0558 16.0391 91.6744 15.9468C91.2931 15.8546 90.9338 15.83 90.5963 15.8733L90.6322 15.1312C91.0494 15.0838 91.4842 15.1252 91.9364 15.2554C92.393 15.379 92.8273 15.5791 93.239 15.8556C93.9164 16.3105 94.324 16.83 94.4618 17.414C94.6107 17.9959 94.4555 18.6288 93.9961 19.3129L91.8151 22.5605L91.1377 22.1055ZM89.3011 20.9444C88.9093 20.6813 88.6096 20.3885 88.4021 20.066C88.2058 19.7414 88.107 19.4149 88.1059 19.0865C88.1093 18.7515 88.2113 18.4346 88.412 18.1357C88.5949 17.8634 88.823 17.66 89.0964 17.5256C89.3808 17.389 89.7138 17.3524 90.0952 17.4159C90.4877 17.4771 90.933 17.675 91.4311 18.0095L93.2342 19.2204L92.8797 19.7484L91.0965 18.5509C90.5917 18.2119 90.1795 18.0651 89.8599 18.1107C89.5468 18.1606 89.3011 18.3184 89.1227 18.5841C88.922 18.8829 88.8777 19.2001 88.9897 19.5355C89.1017 19.8709 89.3669 20.1791 89.7853 20.4601C90.1838 20.7277 90.586 20.8678 90.992 20.8803C91.4092 20.8905 91.8001 20.7676 92.1648 20.5115L91.9964 21.1067C91.6316 21.3628 91.2141 21.4823 90.7438 21.4652C90.2801 21.4525 89.7992 21.2789 89.3011 20.9444Z" fill="black"/>
<path d="M94.6784 25.2489C94.2315 24.8607 93.9921 24.4409 93.9602 23.9895C93.9284 23.5381 94.104 23.0919 94.4869 22.6509L98.3658 18.184L99.0091 18.7426L95.1617 23.1733C94.9204 23.4512 94.8036 23.7259 94.8114 23.9976C94.8253 24.2745 94.9651 24.5283 95.2309 24.7591C95.5148 25.0057 95.8212 25.1287 96.15 25.1282L95.9753 25.787C95.7488 25.7916 95.5213 25.7424 95.2929 25.6394C95.0705 25.5417 94.8657 25.4115 94.6784 25.2489ZM96.1372 19.0301L96.6014 18.4955L99.5461 21.0525L99.0819 21.5871L96.1372 19.0301Z" fill="black"/>
<path d="M98.5583 29.3518C98.1198 28.8639 97.8359 28.3446 97.7067 27.7939C97.5834 27.2378 97.6067 26.6952 97.7766 26.1661C97.9524 25.6317 98.2723 25.1559 98.7365 24.7388C99.2006 24.3217 99.6994 24.0509 100.233 23.9264C100.772 23.8079 101.297 23.8303 101.81 23.9936C102.334 24.1575 102.791 24.4566 103.181 24.891C103.577 25.3313 103.826 25.8119 103.928 26.3329C104.042 26.8545 104.006 27.3766 103.819 27.8991C103.639 28.4163 103.313 28.8861 102.843 29.3086C102.814 29.3353 102.778 29.3618 102.737 29.3879C102.707 29.4146 102.675 29.444 102.639 29.4761L98.9732 25.3972L99.4463 24.9721L102.807 28.7118L102.395 28.6304C102.734 28.3256 102.968 27.9811 103.096 27.5971C103.235 27.2137 103.267 26.8302 103.191 26.4466C103.116 26.063 102.931 25.7075 102.637 25.3803C102.348 25.059 102.014 24.8372 101.635 24.715C101.257 24.5929 100.869 24.5807 100.473 24.6785C100.077 24.7763 99.7064 24.9803 99.3613 25.2905L99.2631 25.3787C98.9061 25.6995 98.6603 26.0603 98.5256 26.461C98.4022 26.8623 98.3888 27.2723 98.4855 27.691C98.5934 28.1103 98.8104 28.5014 99.1366 28.8644C99.3933 29.15 99.6818 29.3693 100.002 29.5224C100.328 29.6814 100.675 29.7565 101.044 29.7479L100.954 30.4739C100.517 30.4902 100.091 30.3995 99.6771 30.2018C99.2681 30.01 98.8952 29.7267 98.5583 29.3518Z" fill="black"/>
<path d="M107.921 40.4793C116.457 55.2637 111.206 78.8159 96.4216 87.3517" stroke="#B1E392"/>
<mask id="path-43-inside-1_16_82" fill="white">
<path d="M106.588 35.4793L108.379 33.6918C108.458 33.6133 108.502 33.5069 108.502 33.3959C108.502 33.285 108.458 33.1786 108.379 33.1001C108.301 33.0216 108.194 32.9776 108.083 32.9776C107.972 32.9776 107.866 33.0216 107.788 33.1001L106 34.8918L104.213 33.1001C104.134 33.0216 104.028 32.9776 103.917 32.9776C103.806 32.9776 103.699 33.0216 103.621 33.1001C103.542 33.1786 103.498 33.285 103.498 33.3959C103.498 33.5069 103.542 33.6133 103.621 33.6918L105.413 35.4793L103.621 37.2668C103.582 37.3055 103.551 37.3516 103.53 37.4024C103.509 37.4531 103.498 37.5076 103.498 37.5626C103.498 37.6176 103.509 37.6721 103.53 37.7228C103.551 37.7736 103.582 37.8197 103.621 37.8584C103.66 37.8975 103.706 37.9285 103.756 37.9496C103.807 37.9708 103.862 37.9817 103.917 37.9817C103.972 37.9817 104.026 37.9708 104.077 37.9496C104.128 37.9285 104.174 37.8975 104.213 37.8584L106 36.0668L107.788 37.8584C107.826 37.8975 107.872 37.9285 107.923 37.9496C107.974 37.9708 108.028 37.9817 108.083 37.9817C108.138 37.9817 108.193 37.9708 108.244 37.9496C108.294 37.9285 108.34 37.8975 108.379 37.8584C108.418 37.8197 108.449 37.7736 108.47 37.7228C108.492 37.6721 108.502 37.6176 108.502 37.5626C108.502 37.5076 108.492 37.4531 108.47 37.4024C108.449 37.3516 108.418 37.3055 108.379 37.2668L106.588 35.4793Z"/>
</mask>
<path d="M106.588 35.4793L105.881 34.7713L105.172 35.4793L105.881 36.1872L106.588 35.4793ZM108.379 33.6918L109.085 34.3997L109.086 34.3989L108.379 33.6918ZM108.502 33.3959L109.502 33.3959L108.502 33.3959ZM108.083 32.9776V33.9776V32.9776ZM107.788 33.1001L107.08 32.393L107.08 32.3938L107.788 33.1001ZM106 34.8918L105.292 35.5981L106 36.3076L106.708 35.5981L106 34.8918ZM104.213 33.1001L104.92 32.3938L104.92 32.393L104.213 33.1001ZM103.917 32.9776L103.917 31.9776L103.917 32.9776ZM103.498 33.3959L102.498 33.3959L103.498 33.3959ZM103.621 33.6918L102.914 34.3989L102.915 34.3997L103.621 33.6918ZM105.413 35.4793L106.119 36.1872L106.828 35.4793L106.119 34.7713L105.413 35.4793ZM103.621 37.2668L104.325 37.9768L104.327 37.9747L103.621 37.2668ZM103.621 37.8584L104.331 37.1542L104.325 37.1484L103.621 37.8584ZM104.213 37.8584L103.505 37.1522L103.503 37.1542L104.213 37.8584ZM106 36.0668L106.708 35.3605L106 34.6509L105.292 35.3605L106 36.0668ZM107.788 37.8584L108.498 37.1542L108.495 37.1522L107.788 37.8584ZM108.379 37.8584L107.675 37.1484L107.669 37.1542L108.379 37.8584ZM108.379 37.2668L107.673 37.9747L107.675 37.9768L108.379 37.2668ZM107.294 36.1872L109.085 34.3997L107.673 32.9838L105.881 34.7713L107.294 36.1872ZM109.086 34.3989C109.352 34.1329 109.502 33.7721 109.502 33.3959H107.502C107.502 33.2417 107.563 33.0937 107.672 32.9847L109.086 34.3989ZM109.502 33.3959C109.502 33.0198 109.352 32.659 109.086 32.393L107.672 33.8072C107.563 33.6981 107.502 33.5502 107.502 33.3959L109.502 33.3959ZM109.086 32.393C108.82 32.127 108.46 31.9776 108.083 31.9776V33.9776C107.929 33.9776 107.781 33.9163 107.672 33.8072L109.086 32.393ZM108.083 31.9776C107.707 31.9776 107.346 32.127 107.08 32.393L108.495 33.8072C108.386 33.9163 108.238 33.9776 108.083 33.9776V31.9776ZM107.08 32.3938L105.292 34.1855L106.708 35.5981L108.495 33.8064L107.08 32.3938ZM106.708 34.1855L104.92 32.3938L103.505 33.8064L105.292 35.5981L106.708 34.1855ZM104.92 32.393C104.654 32.127 104.293 31.9776 103.917 31.9776L103.917 33.9776C103.762 33.9776 103.615 33.9163 103.505 33.8072L104.92 32.393ZM103.917 31.9776C103.541 31.9776 103.18 32.127 102.914 32.393L104.328 33.8072C104.219 33.9163 104.071 33.9776 103.917 33.9776L103.917 31.9776ZM102.914 32.393C102.648 32.659 102.498 33.0198 102.498 33.3959L104.498 33.3959C104.498 33.5502 104.437 33.6981 104.328 33.8072L102.914 32.393ZM102.498 33.3959C102.498 33.7721 102.648 34.1329 102.914 34.3989L104.328 32.9847C104.437 33.0937 104.498 33.2417 104.498 33.3959L102.498 33.3959ZM102.915 34.3997L104.706 36.1872L106.119 34.7713L104.327 32.9838L102.915 34.3997ZM104.706 34.7713L102.915 36.5588L104.327 37.9747L106.119 36.1872L104.706 34.7713ZM102.917 36.5568C102.784 36.6885 102.678 36.8452 102.607 37.0178L104.453 37.7869C104.423 37.858 104.38 37.9225 104.325 37.9768L102.917 36.5568ZM102.607 37.0178C102.535 37.1904 102.498 37.3756 102.498 37.5626H104.498C104.498 37.6396 104.482 37.7159 104.453 37.7869L102.607 37.0178ZM102.498 37.5626C102.498 37.7496 102.535 37.9348 102.607 38.1074L104.453 37.3383C104.482 37.4094 104.498 37.4856 104.498 37.5626H102.498ZM102.607 38.1074C102.678 38.2801 102.784 38.4367 102.917 38.5684L104.325 37.1484C104.38 37.2027 104.423 37.2672 104.453 37.3383L102.607 38.1074ZM102.911 38.5626C103.043 38.6954 103.199 38.8008 103.372 38.8727L104.141 37.0266C104.212 37.0562 104.277 37.0996 104.331 37.1542L102.911 38.5626ZM103.372 38.8727C103.545 38.9447 103.73 38.9817 103.917 38.9817V36.9817C103.994 36.9817 104.07 36.9969 104.141 37.0266L103.372 38.8727ZM103.917 38.9817C104.104 38.9817 104.289 38.9447 104.462 38.8727L103.692 37.0266C103.763 36.9969 103.84 36.9817 103.917 36.9817V38.9817ZM104.462 38.8727C104.634 38.8008 104.791 38.6954 104.923 38.5626L103.503 37.1542C103.557 37.0996 103.621 37.0562 103.692 37.0266L104.462 38.8727ZM104.92 38.5647L106.708 36.7731L105.292 35.3605L103.505 37.1522L104.92 38.5647ZM105.292 36.7731L107.08 38.5647L108.495 37.1522L106.708 35.3605L105.292 36.7731ZM107.078 38.5626C107.209 38.6954 107.366 38.8008 107.539 38.8727L108.308 37.0266C108.379 37.0562 108.443 37.0996 108.498 37.1542L107.078 38.5626ZM107.539 38.8727C107.711 38.9447 107.896 38.9817 108.083 38.9817V36.9817C108.16 36.9817 108.237 36.9969 108.308 37.0266L107.539 38.8727ZM108.083 38.9817C108.27 38.9817 108.456 38.9447 108.628 38.8727L107.859 37.0266C107.93 36.9969 108.006 36.9817 108.083 36.9817V38.9817ZM108.628 38.8727C108.801 38.8008 108.958 38.6954 109.089 38.5626L107.669 37.1542C107.723 37.0996 107.788 37.0562 107.859 37.0266L108.628 38.8727ZM109.083 38.5684C109.216 38.4368 109.322 38.2801 109.394 38.1074L107.547 37.3383C107.577 37.2672 107.62 37.2027 107.675 37.1484L109.083 38.5684ZM109.394 38.1074C109.465 37.9348 109.502 37.7496 109.502 37.5626H107.502C107.502 37.4856 107.518 37.4094 107.547 37.3383L109.394 38.1074ZM109.502 37.5626C109.502 37.3756 109.465 37.1904 109.394 37.0178L107.547 37.7869C107.518 37.7159 107.502 37.6396 107.502 37.5626H109.502ZM109.394 37.0178C109.322 36.8451 109.216 36.6885 109.083 36.5568L107.675 37.9768C107.62 37.9226 107.577 37.858 107.547 37.7869L109.394 37.0178ZM109.085 36.5588L107.294 34.7713L105.881 36.1872L107.673 37.9747L109.085 36.5588Z" fill="#B1E392" mask="url(#path-43-inside-1_16_82)"/>
<path d="M17.4216 40.4793C8.88577 55.2637 14.1363 78.8159 28.9207 87.3517" stroke="#B1E392"/>
<mask id="path-46-inside-2_16_82" fill="white">
<path d="M18.7548 35.4793L16.9631 33.6918C16.8846 33.6133 16.8406 33.5069 16.8406 33.3959C16.8406 33.285 16.8846 33.1786 16.9631 33.1001C17.0416 33.0216 17.148 32.9776 17.2589 32.9776C17.3699 32.9776 17.4763 33.0216 17.5548 33.1001L19.3423 34.8918L21.1298 33.1001C21.2082 33.0216 21.3146 32.9776 21.4256 32.9776C21.5366 32.9776 21.643 33.0216 21.7214 33.1001C21.7999 33.1786 21.844 33.285 21.844 33.3959C21.844 33.5069 21.7999 33.6133 21.7214 33.6918L19.9298 35.4793L21.7214 37.2668C21.7605 37.3055 21.7915 37.3516 21.8126 37.4024C21.8338 37.4531 21.8447 37.5076 21.8447 37.5626C21.8447 37.6176 21.8338 37.6721 21.8126 37.7228C21.7915 37.7736 21.7605 37.8197 21.7214 37.8584C21.6827 37.8975 21.6366 37.9285 21.5858 37.9496C21.5351 37.9708 21.4806 37.9817 21.4256 37.9817C21.3706 37.9817 21.3161 37.9708 21.2654 37.9496C21.2146 37.9285 21.1685 37.8975 21.1298 37.8584L19.3423 36.0668L17.5548 37.8584C17.516 37.8975 17.4699 37.9285 17.4192 37.9496C17.3684 37.9708 17.3139 37.9817 17.2589 37.9817C17.2039 37.9817 17.1495 37.9708 17.0987 37.9496C17.0479 37.9285 17.0018 37.8975 16.9631 37.8584C16.924 37.8197 16.893 37.7736 16.8719 37.7228C16.8507 37.6721 16.8398 37.6176 16.8398 37.5626C16.8398 37.5076 16.8507 37.4531 16.8719 37.4024C16.893 37.3516 16.924 37.3055 16.9631 37.2668L18.7548 35.4793Z"/>
</mask>
<path d="M18.7548 35.4793L19.461 34.7713L20.1706 35.4793L19.461 36.1872L18.7548 35.4793ZM16.9631 33.6918L16.2568 34.3997L16.256 34.3989L16.9631 33.6918ZM16.8406 33.3959L15.8406 33.3959L16.8406 33.3959ZM17.2589 32.9776L17.2589 33.9776L17.2589 32.9776ZM17.5548 33.1001L18.2619 32.393L18.2627 32.3938L17.5548 33.1001ZM19.3423 34.8918L20.0502 35.5981L19.3423 36.3076L18.6343 35.5981L19.3423 34.8918ZM21.1298 33.1001L20.4218 32.3938L20.4227 32.393L21.1298 33.1001ZM21.4256 32.9776L21.4256 31.9776L21.4256 32.9776ZM21.844 33.3959L22.844 33.3959L21.844 33.3959ZM21.7214 33.6918L22.4285 34.3989L22.4277 34.3997L21.7214 33.6918ZM19.9298 35.4793L19.2235 36.1872L18.5139 35.4793L19.2235 34.7713L19.9298 35.4793ZM21.7214 37.2668L21.0172 37.9768L21.0151 37.9747L21.7214 37.2668ZM21.7214 37.8584L21.0114 37.1542L21.0172 37.1484L21.7214 37.8584ZM21.1298 37.8584L21.8377 37.1522L21.8398 37.1542L21.1298 37.8584ZM19.3423 36.0668L18.6343 35.3605L19.3423 34.6509L20.0502 35.3605L19.3423 36.0668ZM17.5548 37.8584L16.8448 37.1542L16.8468 37.1522L17.5548 37.8584ZM16.9631 37.8584L17.6673 37.1484L17.6731 37.1542L16.9631 37.8584ZM16.9631 37.2668L17.6694 37.9747L17.6673 37.9768L16.9631 37.2668ZM18.0485 36.1872L16.2568 34.3997L17.6694 32.9838L19.461 34.7713L18.0485 36.1872ZM16.256 34.3989C15.99 34.1329 15.8406 33.7721 15.8406 33.3959H17.8406C17.8406 33.2417 17.7793 33.0937 17.6702 32.9847L16.256 34.3989ZM15.8406 33.3959C15.8406 33.0198 15.99 32.659 16.256 32.393L17.6702 33.8072C17.7793 33.6981 17.8406 33.5502 17.8406 33.3959L15.8406 33.3959ZM16.256 32.393C16.522 32.127 16.8828 31.9776 17.2589 31.9776L17.2589 33.9776C17.4132 33.9776 17.5611 33.9163 17.6702 33.8072L16.256 32.393ZM17.2589 31.9776C17.6351 31.9776 17.9959 32.127 18.2619 32.393L16.8477 33.8072C16.9567 33.9163 17.1047 33.9776 17.2589 33.9776V31.9776ZM18.2627 32.3938L20.0502 34.1855L18.6343 35.5981L16.8468 33.8064L18.2627 32.3938ZM18.6343 34.1855L20.4218 32.3938L21.8377 33.8064L20.0502 35.5981L18.6343 34.1855ZM20.4227 32.393C20.6887 32.127 21.0494 31.9776 21.4256 31.9776L21.4256 33.9776C21.5799 33.9776 21.7278 33.9163 21.8369 33.8072L20.4227 32.393ZM21.4256 31.9776C21.8018 31.9776 22.1625 32.127 22.4285 32.393L21.0143 33.8072C21.1234 33.9163 21.2713 33.9776 21.4256 33.9776L21.4256 31.9776ZM22.4285 32.393C22.6945 32.659 22.844 33.0198 22.844 33.3959L20.844 33.3959C20.844 33.5502 20.9052 33.6981 21.0143 33.8072L22.4285 32.393ZM22.844 33.3959C22.844 33.7721 22.6945 34.1329 22.4285 34.3989L21.0143 32.9847C20.9052 33.0937 20.844 33.2417 20.844 33.3959L22.844 33.3959ZM22.4277 34.3997L20.636 36.1872L19.2235 34.7713L21.0151 32.9838L22.4277 34.3997ZM20.636 34.7713L22.4277 36.5588L21.0151 37.9747L19.2235 36.1872L20.636 34.7713ZM22.4256 36.5568C22.5584 36.6885 22.6638 36.8452 22.7357 37.0178L20.8895 37.7869C20.9192 37.858 20.9626 37.9225 21.0172 37.9768L22.4256 36.5568ZM22.7357 37.0178C22.8077 37.1904 22.8447 37.3756 22.8447 37.5626H20.8447C20.8447 37.6396 20.8599 37.7159 20.8895 37.7869L22.7357 37.0178ZM22.8447 37.5626C22.8447 37.7496 22.8077 37.9348 22.7357 38.1074L20.8895 37.3383C20.8599 37.4094 20.8447 37.4856 20.8447 37.5626H22.8447ZM22.7357 38.1074C22.6638 38.2801 22.5584 38.4367 22.4256 38.5684L21.0172 37.1484C20.9626 37.2027 20.9192 37.2672 20.8895 37.3383L22.7357 38.1074ZM22.4314 38.5626C22.2997 38.6954 22.1431 38.8008 21.9704 38.8727L21.2013 37.0266C21.1302 37.0562 21.0657 37.0996 21.0114 37.1542L22.4314 38.5626ZM21.9704 38.8727C21.7978 38.9447 21.6126 38.9817 21.4256 38.9817V36.9817C21.3486 36.9817 21.2723 36.9969 21.2013 37.0266L21.9704 38.8727ZM21.4256 38.9817C21.2386 38.9817 21.0534 38.9447 20.8808 38.8727L21.6499 37.0266C21.5788 36.9969 21.5026 36.9817 21.4256 36.9817V38.9817ZM20.8808 38.8727C20.7081 38.8008 20.5515 38.6954 20.4198 38.5626L21.8398 37.1542C21.7855 37.0996 21.721 37.0562 21.6499 37.0266L20.8808 38.8727ZM20.4218 38.5647L18.6343 36.7731L20.0502 35.3605L21.8377 37.1522L20.4218 38.5647ZM20.0502 36.7731L18.2627 38.5647L16.8468 37.1522L18.6343 35.3605L20.0502 36.7731ZM18.2648 38.5626C18.1331 38.6954 17.9764 38.8008 17.8037 38.8727L17.0346 37.0266C16.9635 37.0562 16.899 37.0996 16.8448 37.1542L18.2648 38.5626ZM17.8037 38.8727C17.6311 38.9447 17.4459 38.9817 17.2589 38.9817V36.9817C17.1819 36.9817 17.1057 36.9969 17.0346 37.0266L17.8037 38.8727ZM17.2589 38.9817C17.0719 38.9817 16.8868 38.9447 16.7141 38.8727L17.4833 37.0266C17.4122 36.9969 17.3359 36.9817 17.2589 36.9817V38.9817ZM16.7141 38.8727C16.5415 38.8008 16.3848 38.6954 16.2531 38.5626L17.6731 37.1542C17.6189 37.0996 17.5544 37.0562 17.4833 37.0266L16.7141 38.8727ZM16.2589 38.5684C16.1261 38.4368 16.0207 38.2801 15.9488 38.1074L17.795 37.3383C17.7654 37.2672 17.722 37.2027 17.6673 37.1484L16.2589 38.5684ZM15.9488 38.1074C15.8769 37.9348 15.8398 37.7496 15.8398 37.5626H17.8398C17.8398 37.4856 17.8246 37.4094 17.795 37.3383L15.9488 38.1074ZM15.8398 37.5626C15.8398 37.3756 15.8769 37.1904 15.9488 37.0178L17.795 37.7869C17.8246 37.7159 17.8398 37.6396 17.8398 37.5626H15.8398ZM15.9488 37.0178C16.0207 36.8451 16.1261 36.6885 16.2589 36.5568L17.6673 37.9768C17.722 37.9226 17.7654 37.858 17.795 37.7869L15.9488 37.0178ZM16.2568 36.5588L18.0485 34.7713L19.461 36.1872L17.6694 37.9747L16.2568 36.5588Z" fill="#B1E392" mask="url(#path-46-inside-2_16_82)"/>
</svg>
