<svg width="179" height="169" viewBox="0 0 179 169" fill="none" xmlns="http://www.w3.org/2000/svg">
<path d="M39.1669 59.387L40.2709 59.659C40.1429 60.027 39.9989 60.411 39.8229 60.763C40.4149 61.659 41.2949 62.123 42.4629 62.347V58.971H36.7509V57.963H48.7509L48.9589 57.915L49.7909 58.171C49.4229 59.099 48.9589 60.171 48.5269 60.843L47.5189 60.571C47.7589 60.155 48.0309 59.563 48.2709 58.971H43.6309V60.251H47.4229V61.131H43.6309V62.491C44.1749 62.539 44.7989 62.555 45.4549 62.555C46.0949 62.555 49.5029 62.555 50.3509 62.523C50.1749 62.795 49.9829 63.291 49.9189 63.611H45.4549C42.4789 63.611 40.5749 63.291 39.3749 61.627C38.5749 62.971 37.5029 64.043 36.2389 64.811C36.1429 64.539 35.8709 63.947 35.6629 63.675C37.2629 62.795 38.5589 61.307 39.1669 59.387ZM43.6469 70.059L46.9589 69.963C46.5269 69.659 46.0789 69.323 45.6949 69.051L46.4149 68.443H43.6469V70.059ZM38.6869 67.515H42.4949V65.915H38.6869V67.515ZM47.4229 65.915H43.6469V67.515H47.4229V65.915ZM48.6069 68.443H46.5269C47.8069 69.323 49.4229 70.539 50.2709 71.275L49.5029 72.043C49.1349 71.707 48.6389 71.291 48.1109 70.875C43.8229 71.067 39.2629 71.275 36.2709 71.355L36.1749 70.219C37.7909 70.203 40.0309 70.155 42.4949 70.091V68.443H37.5509V65.003H42.4949V63.963H43.6469V65.003H48.6069V68.443ZM53.2789 60.891V60.507H52.2709V58.315H58.5589C58.4309 57.995 58.2709 57.691 58.1109 57.403L59.2629 57.131C59.4869 57.483 59.7269 57.915 59.8869 58.315H65.8389V60.523H64.7189V59.275H53.3589V60.139H58.4629V60.891H56.3509V61.659H58.2389V62.363H56.3509V63.099L58.5429 62.955L58.5269 63.771C56.3829 63.931 54.1749 64.075 52.6389 64.187L52.5429 63.307C53.3109 63.275 54.2709 63.227 55.3429 63.163V62.363H53.4709V61.659H55.3429V60.891H53.2789ZM59.5669 61.611H61.5829V60.923H60.2069C60.0149 61.163 59.8069 61.387 59.5669 61.611ZM65.4389 62.315H62.5909V63.371H64.0469V62.571H64.9589V64.075H59.2949V62.571H60.1909V63.371H61.5829V62.315H58.7829V61.611H59.3589C59.1829 61.451 58.9269 61.291 58.7509 61.227C59.3909 60.683 59.8549 60.027 60.1269 59.451L61.0069 59.595C60.9109 59.819 60.7989 60.011 60.6709 60.219H64.6389V60.923H62.5909V61.611H65.4389V62.315ZM55.1989 68.251V69.019H63.0869V68.251H55.1989ZM55.1989 66.795V67.547H63.0869V66.795H55.1989ZM55.1989 65.355V66.091H63.0869V65.355H55.1989ZM64.2709 69.739H61.4869C63.1669 70.171 64.9109 70.715 66.0309 71.131L64.9909 71.867C63.9029 71.387 62.0149 70.779 60.1269 70.267L60.7509 69.739H57.0709L57.8549 70.219C56.5269 70.923 54.3829 71.531 52.6709 71.819C52.5109 71.611 52.1749 71.227 51.9669 71.019C53.5349 70.763 55.4549 70.235 56.5589 69.739H54.0469V64.635H64.2709V69.739ZM69.2789 60.891V60.507H68.2709V58.315H74.5589C74.4309 57.995 74.2709 57.691 74.1109 57.403L75.2629 57.131C75.4869 57.483 75.7269 57.915 75.8869 58.315H81.8389V60.523H80.7189V59.275H69.3589V60.139H74.4629V60.891H72.3509V61.659H74.2389V62.363H72.3509V63.099L74.5429 62.955L74.5269 63.771C72.3829 63.931 70.1749 64.075 68.6389 64.187L68.5429 63.307C69.3109 63.275 70.2709 63.227 71.3429 63.163V62.363H69.4709V61.659H71.3429V60.891H69.2789ZM75.5669 61.611H77.5829V60.923H76.2069C76.0149 61.163 75.8069 61.387 75.5669 61.611ZM81.4389 62.315H78.5909V63.371H80.0469V62.571H80.9589V64.075H75.2949V62.571H76.1909V63.371H77.5829V62.315H74.7829V61.611H75.3589C75.1829 61.451 74.9269 61.291 74.7509 61.227C75.3909 60.683 75.8549 60.027 76.1269 59.451L77.0069 59.595C76.9109 59.819 76.7989 60.011 76.6709 60.219H80.6389V60.923H78.5909V61.611H81.4389V62.315ZM71.1989 68.251V69.019H79.0869V68.251H71.1989ZM71.1989 66.795V67.547H79.0869V66.795H71.1989ZM71.1989 65.355V66.091H79.0869V65.355H71.1989ZM80.2709 69.739H77.4869C79.1669 70.171 80.9109 70.715 82.0309 71.131L80.9909 71.867C79.9029 71.387 78.0149 70.779 76.1269 70.267L76.7509 69.739H73.0709L73.8549 70.219C72.5269 70.923 70.3829 71.531 68.6709 71.819C68.5109 71.611 68.1749 71.227 67.9669 71.019C69.5349 70.763 71.4549 70.235 72.5589 69.739H70.0469V64.635H80.2709V69.739ZM95.0069 64.955V63.339H88.3349V64.955H95.0069ZM88.2869 67.659H95.0069V65.995H88.3349V66.475C88.3349 66.859 88.3189 67.243 88.2869 67.659ZM98.0469 60.411H89.4069C89.1029 61.035 88.7829 61.675 88.4309 62.267H96.1749V70.347C96.1749 71.067 96.0149 71.419 95.5029 71.611C94.9749 71.803 94.0789 71.819 92.7189 71.819C92.6709 71.467 92.4949 70.987 92.3189 70.651C93.3909 70.699 94.3509 70.683 94.6389 70.683C94.9109 70.667 95.0069 70.587 95.0069 70.347V68.683H88.1429C87.9349 69.851 87.4549 71.051 86.5109 71.931C86.3669 71.675 85.9349 71.179 85.6789 71.003C87.0069 69.723 87.1509 67.963 87.1509 66.443V64.107C86.3989 65.019 85.5349 65.867 84.5589 66.555C84.3989 66.299 84.0309 65.867 83.8069 65.627C85.6789 64.363 87.1189 62.475 88.1109 60.411H84.1269V59.291H88.6229C88.8949 58.603 89.1349 57.915 89.3269 57.227L90.5109 57.515C90.3349 58.107 90.1269 58.715 89.8869 59.291H98.0469V60.411ZM103.711 59.227L102.751 59.771C102.511 59.195 101.999 58.299 101.567 57.643L102.479 57.179C102.943 57.835 103.471 58.667 103.711 59.227ZM104.127 67.243H101.455V69.883H104.127V67.243ZM105.183 66.251V70.875H101.455V71.627H100.415V66.251H105.183ZM100.415 65.067V64.123H105.055V65.067H100.415ZM105.055 62.043V62.987H100.415V62.043H105.055ZM99.7589 60.923V59.947H105.599V60.923H99.7589ZM112.335 70.123V67.003H107.743V70.123H112.335ZM114.335 63.259H110.623V65.915H113.487V71.787H112.335V71.211H107.743V71.851H106.655V65.915H109.519V63.259H106.047V62.123H109.519V59.275C108.479 59.435 107.423 59.579 106.447 59.691C106.415 59.419 106.271 59.003 106.143 58.731C108.479 58.443 111.231 57.931 112.767 57.339L113.535 58.283C112.719 58.587 111.695 58.843 110.623 59.067V62.123H114.335V63.259ZM124.255 60.331V58.987H121.679V60.331H124.255ZM128.047 61.307H125.391V63.467H128.047V61.307ZM121.679 61.307V63.467H124.255V61.307H121.679ZM118.143 61.307V63.467H120.543V61.307H118.143ZM120.543 60.331V58.987H116.223V57.931H129.887V58.987H125.391V60.331H129.215V64.443H117.007V60.331H120.543ZM125.471 67.339H120.751C120.447 67.787 120.143 68.219 119.855 68.587C121.007 68.779 122.143 69.003 123.263 69.211C124.159 68.731 124.895 68.123 125.471 67.339ZM130.143 67.339H126.879C126.351 68.235 125.663 68.971 124.815 69.563C126.767 70.011 128.543 70.491 129.871 70.971L128.799 71.819C127.471 71.323 125.647 70.779 123.535 70.299C121.759 71.147 119.407 71.611 116.399 71.851C116.319 71.515 116.111 71.083 115.919 70.811C118.271 70.667 120.159 70.395 121.695 69.883C120.495 69.643 119.247 69.403 117.983 69.195C118.447 68.683 118.943 68.027 119.423 67.339H115.967V66.315H120.095C120.463 65.739 120.783 65.163 121.055 64.635L122.207 64.907C121.999 65.371 121.727 65.851 121.423 66.315H126.079C126.239 66.011 126.367 65.723 126.479 65.387L127.615 65.723C127.551 65.915 127.487 66.123 127.391 66.315H130.143V67.339ZM146.367 61.659L145.471 62.299C144.831 61.099 143.407 59.211 142.143 57.851L142.991 57.307C144.239 58.651 145.727 60.459 146.367 61.659ZM135.487 59.419L134.431 59.803C134.255 59.211 133.839 58.315 133.455 57.643L134.447 57.307C134.863 57.963 135.295 58.827 135.487 59.419ZM137.327 59.947V60.923H131.759V59.947H137.327ZM136.751 62.043V62.987H132.399V62.043H136.751ZM132.399 65.067V64.123H136.751V65.067H132.399ZM135.871 67.243H133.407V69.883H135.871V67.243ZM136.895 66.251V70.875H133.407V71.627H132.351V66.251H136.895ZM139.759 62.619V65.211H143.631V62.619H139.759ZM143.951 70.523H144.927C145.263 70.523 145.327 70.283 145.375 68.635C145.615 68.811 146.079 69.003 146.415 69.083C146.287 71.099 145.983 71.611 145.071 71.611H143.759C142.671 71.611 142.399 71.259 142.399 70.091V66.267H141.135C140.895 68.779 140.239 70.779 137.855 71.915C137.711 71.627 137.375 71.195 137.135 71.003C139.231 70.075 139.775 68.363 139.983 66.267H138.623V61.563C138.351 61.867 138.095 62.139 137.823 62.395C137.631 62.187 137.199 61.771 136.927 61.579C138.127 60.571 139.231 59.035 139.887 57.467L140.991 57.803C140.399 59.163 139.551 60.491 138.639 61.547H144.799V66.267H143.567V70.075C143.567 70.459 143.615 70.523 143.951 70.523ZM40.5909 82.011L40.0629 81.803C40.3029 81.115 40.6069 79.995 40.7509 79.259L41.4549 79.515C41.1669 80.347 40.8629 81.371 40.5909 82.011ZM37.5029 79.467L38.0949 79.307C38.3829 80.075 38.5909 81.083 38.6389 81.723L37.9989 81.899C37.9669 81.243 37.7749 80.235 37.5029 79.467ZM37.2789 78.683V82.523H39.0069V78.683H37.2789ZM41.6629 82.523V78.683H39.8229V82.523H41.6629ZM35.9509 87.851L35.8869 86.827C36.7189 86.795 37.7429 86.731 38.8789 86.683V85.435H36.2389V84.491H38.8789V83.387H36.3509V77.819H42.6229V83.387H39.9509V84.491H42.7189V85.435H39.9509V86.619C40.9269 86.571 41.9509 86.507 42.9749 86.443L42.9429 87.403C40.3989 87.595 37.7909 87.755 35.9509 87.851ZM36.4309 91.835L35.6309 91.403C36.2549 90.747 36.5589 89.595 36.6869 88.491L37.5349 88.715C37.3749 89.899 37.1349 91.131 36.4309 91.835ZM38.0469 88.539L38.8149 88.459C39.0709 89.323 39.2469 90.475 39.2469 91.211L38.4309 91.323C38.4309 90.571 38.2709 89.435 38.0469 88.539ZM39.5669 88.459L40.3189 88.299C40.6869 89.099 41.0389 90.155 41.1509 90.859L40.3349 91.035C40.2549 90.331 39.9189 89.275 39.5669 88.459ZM41.0869 88.251L41.8229 87.947C42.3829 88.683 42.9589 89.675 43.1989 90.331L42.3989 90.683C42.1749 90.011 41.6149 88.987 41.0869 88.251ZM48.6229 89.995V85.883H44.5909V89.995H48.6229ZM50.3829 81.819H46.9749V84.779H49.7429V91.755H48.6229V91.067H44.5909V91.819H43.5029V84.779H45.8069V77.259H46.9749V80.699H50.3829V81.819ZM56.5909 82.011L56.0629 81.803C56.3029 81.115 56.6069 79.995 56.7509 79.259L57.4549 79.515C57.1669 80.347 56.8629 81.371 56.5909 82.011ZM53.5029 79.467L54.0949 79.307C54.3829 80.075 54.5909 81.083 54.6389 81.723L53.9989 81.899C53.9669 81.243 53.7749 80.235 53.5029 79.467ZM53.2789 78.683V82.523H55.0069V78.683H53.2789ZM57.6629 82.523V78.683H55.8229V82.523H57.6629ZM51.9509 87.851L51.8869 86.827C52.7189 86.795 53.7429 86.731 54.8789 86.683V85.435H52.2389V84.491H54.8789V83.387H52.3509V77.819H58.6229V83.387H55.9509V84.491H58.7189V85.435H55.9509V86.619C56.9269 86.571 57.9509 86.507 58.9749 86.443L58.9429 87.403C56.3989 87.595 53.7909 87.755 51.9509 87.851ZM52.4309 91.835L51.6309 91.403C52.2549 90.747 52.5589 89.595 52.6869 88.491L53.5349 88.715C53.3749 89.899 53.1349 91.131 52.4309 91.835ZM54.0469 88.539L54.8149 88.459C55.0709 89.323 55.2469 90.475 55.2469 91.211L54.4309 91.323C54.4309 90.571 54.2709 89.435 54.0469 88.539ZM55.5669 88.459L56.3189 88.299C56.6869 89.099 57.0389 90.155 57.1509 90.859L56.3349 91.035C56.2549 90.331 55.9189 89.275 55.5669 88.459ZM57.0869 88.251L57.8229 87.947C58.3829 88.683 58.9589 89.675 59.1989 90.331L58.3989 90.683C58.1749 90.011 57.6149 88.987 57.0869 88.251ZM64.6229 89.995V85.883H60.5909V89.995H64.6229ZM66.3829 81.819H62.9749V84.779H65.7429V91.755H64.6229V91.067H60.5909V91.819H59.5029V84.779H61.8069V77.259H62.9749V80.699H66.3829V81.819ZM71.3589 77.291L72.4629 77.643C72.0149 78.827 71.4389 80.027 70.7989 81.131V91.819H69.6629V82.875C69.1669 83.595 68.6229 84.235 68.0789 84.795C67.9669 84.523 67.6309 83.915 67.4069 83.643C68.9749 82.107 70.4629 79.723 71.3589 77.291ZM75.9189 90.619H80.0789C81.0389 90.619 81.2149 90.187 81.3429 88.315C81.6309 88.507 82.0949 88.699 82.4309 88.763C82.2229 90.987 81.8549 91.691 80.1109 91.691H75.9029C74.0149 91.691 73.4549 91.243 73.4549 89.483V84.235L71.8709 84.843L71.4229 83.803L73.4549 83.003V78.843H74.5749V82.571L76.9269 81.643V77.259H78.0149V81.227L80.6709 80.203L80.8949 80.027L81.7749 80.299L81.7269 80.523C81.6789 82.827 81.5189 85.883 81.2629 87.771L80.2869 87.483C80.4469 85.979 80.5429 83.531 80.5749 81.451L78.0149 82.443V88.299H76.9269V82.875L74.5749 83.803V89.483C74.5749 90.411 74.7989 90.619 75.9189 90.619ZM86.8149 77.323L87.9189 77.627C87.5669 78.683 87.1509 79.739 86.6709 80.747V91.835H85.5349V82.875C85.0549 83.675 84.5589 84.395 84.0309 85.019C83.9189 84.731 83.5989 84.107 83.4069 83.819C84.7829 82.219 86.0469 79.787 86.8149 77.323ZM91.4869 79.099H89.2629V80.555H91.4869V79.099ZM89.2629 83.003H91.4869V81.451H89.2629V83.003ZM92.4309 78.155V83.931H89.2629V91.803H88.1589V78.155H92.4309ZM94.3669 83.003H96.7189V81.451H94.3669V83.003ZM96.7189 79.099H94.3669V80.555H96.7189V79.099ZM97.8389 78.155V90.283C97.8389 91.051 97.6629 91.419 97.1349 91.611C96.5909 91.803 95.6629 91.819 94.1589 91.819C94.0949 91.515 93.9029 90.987 93.7589 90.683C94.8949 90.715 95.9989 90.715 96.3029 90.699C96.6069 90.683 96.7189 90.587 96.7189 90.267V83.931H93.3909V78.155H97.8389ZM103.471 79.851H101.439V86.523H103.471V79.851ZM104.575 78.747V87.627H101.439V89.147H100.351V78.747H104.575ZM109.327 79.371H107.151V84.507H109.327V79.371ZM112.671 84.507V79.371H110.415V84.507H112.671ZM108.367 90.427H112.191C113.087 90.427 113.247 89.979 113.375 88.155C113.663 88.363 114.127 88.571 114.463 88.635C114.271 90.811 113.903 91.531 112.239 91.531H108.319C106.559 91.531 105.983 91.099 105.983 89.323V78.267H113.839V86.603H112.671V85.595H107.151V89.339C107.151 90.235 107.343 90.427 108.367 90.427ZM120.713 87.083L120.521 80.299L120.473 78.635H121.961L121.913 80.299L121.721 87.083H120.713ZM121.209 90.827C120.633 90.827 120.153 90.379 120.153 89.723C120.153 89.067 120.633 88.587 121.209 88.587C121.801 88.587 122.265 89.067 122.265 89.723C122.265 90.379 121.801 90.827 121.209 90.827Z" fill="black"/>
<line x1="35.1076" y1="17.8539" x2="178.736" y2="1.18595" stroke="black"/>
<line x1="0.628376" y1="122.062" x2="113.457" y2="167.899" stroke="black"/>
</svg>
