<svg width="38" height="38" viewBox="0 0 38 38" fill="none" xmlns="http://www.w3.org/2000/svg">
<path d="M23.2903 18.9007L36.2989 5.92236C36.8685 5.3527 37.1886 4.58007 37.1886 3.77444C37.1886 2.96881 36.8685 2.19618 36.2989 1.62652C35.7292 1.05685 34.9566 0.736816 34.151 0.736816C33.3453 0.736816 32.5727 1.05685 32.003 1.62652L19.0247 14.6351L6.04642 1.62652C5.47676 1.05685 4.70413 0.736816 3.8985 0.736816C3.09287 0.736816 2.32024 1.05685 1.75058 1.62652C1.18091 2.19618 0.860876 2.96881 0.860876 3.77444C0.860876 4.58007 1.18091 5.3527 1.75058 5.92236L14.7591 18.9007L1.75058 31.879C1.46702 32.1602 1.24196 32.4948 1.08838 32.8635C0.934788 33.2321 0.855713 33.6275 0.855713 34.0269C0.855713 34.4263 0.934788 34.8217 1.08838 35.1903C1.24196 35.559 1.46702 35.8936 1.75058 36.1748C2.03181 36.4584 2.36641 36.6834 2.73506 36.837C3.10371 36.9906 3.49913 37.0697 3.8985 37.0697C4.29787 37.0697 4.69328 36.9906 5.06194 36.837C5.43059 36.6834 5.76519 36.4584 6.04642 36.1748L19.0247 23.1663L32.003 36.1748C32.2843 36.4584 32.6189 36.6834 32.9875 36.837C33.3562 36.9906 33.7516 37.0697 34.151 37.0697C34.5503 37.0697 34.9457 36.9906 35.3144 36.837C35.683 36.6834 36.0176 36.4584 36.2989 36.1748C36.5824 35.8936 36.8075 35.559 36.9611 35.1903C37.1147 34.8217 37.1937 34.4263 37.1937 34.0269C37.1937 33.6275 37.1147 33.2321 36.9611 32.8635C36.8075 32.4948 36.5824 32.1602 36.2989 31.879L23.2903 18.9007Z" fill="#B1E392"/>
</svg>
